<svg viewBox="0 0 240 300" xmlns="http://www.w3.org/2000/svg"><rect width="240" height="300" rx="16" fill="#fce4ec"/><rect x="20" y="258" width="200" height="8" rx="4" fill="#f8bbd0"/><ellipse cx="120" cy="110" rx="20" ry="20" fill="#880e4f"/><path d="M108 128 Q100 145 100 165" stroke="#880e4f" stroke-width="12" stroke-linecap="round" fill="none"/><path d="M100 165 Q95 178 85 188 Q75 195 62 195 Q48 192 42 205" stroke="#880e4f" stroke-width="11" stroke-linecap="round" fill="none"/><path d="M42 205 Q60 220 80 218 Q95 215 100 208" stroke="#880e4f" stroke-width="11" stroke-linecap="round" fill="none"/><path d="M132 128 Q140 145 140 165" stroke="#880e4f" stroke-width="12" stroke-linecap="round" fill="none"/><path d="M140 165 Q145 178 155 188 Q165 195 178 195 Q192 192 198 205" stroke="#880e4f" stroke-width="11" stroke-linecap="round" fill="none"/><path d="M198 205 Q180 220 160 218 Q145 215 140 208" stroke="#880e4f" stroke-width="11" stroke-linecap="round" fill="none"/><path d="M100 208 L140 208" stroke="#880e4f" stroke-width="10" stroke-linecap="round"/></svg>